<svg width="50" height="50" viewBox="0 0 50 50" fill="none" xmlns="http://www.w3.org/2000/svg">
<circle opacity="0.9" cx="25" cy="25" r="24.5" fill="#002870" stroke="#96BADA"/>
<line x1="25" y1="26" x2="25" y2="39.86" stroke="white" stroke-width="4" stroke-linecap="round" stroke-linejoin="round"/>
<path d="M16.5 30L24.5 24L32.5 30" stroke="white" stroke-width="4" stroke-linecap="round" stroke-linejoin="round"/>
<path d="M17.7286 18H19.2086V11.83H21.3086V10.6H15.6486V11.83H17.7286V18ZM25.1361 18.14C27.0961 18.14 28.4461 16.67 28.4461 14.27C28.4461 11.87 27.0961 10.46 25.1361 10.46C23.1761 10.46 21.8261 11.86 21.8261 14.27C21.8261 16.67 23.1761 18.14 25.1361 18.14ZM25.1361 16.86C24.0361 16.86 23.3361 15.85 23.3361 14.27C23.3361 12.68 24.0361 11.73 25.1361 11.73C26.2361 11.73 26.9361 12.68 26.9361 14.27C26.9361 15.85 26.2361 16.86 25.1361 16.86ZM29.8914 18H31.3714V15.37H32.3614C33.9514 15.37 35.2214 14.61 35.2214 12.92C35.2214 11.17 33.9614 10.6 32.3214 10.6H29.8914V18ZM31.3714 14.2V11.77H32.2114C33.2314 11.77 33.7714 12.06 33.7714 12.92C33.7714 13.77 33.2814 14.2 32.2614 14.2H31.3714Z" fill="white"/>
</svg>
