<svg width="16" height="15" viewBox="0 0 16 15" fill="none" xmlns="http://www.w3.org/2000/svg">
<g clip-path="url(#clip0_11_3034)">
<path fill-rule="evenodd" clip-rule="evenodd" d="M13.625 0H2.375C1.87772 0 1.40081 0.197544 1.04917 0.549175C0.697544 0.900806 0.5 1.37772 0.5 1.875L0.5 13.125C0.5 13.6223 0.697544 14.0992 1.04917 14.4508C1.40081 14.8025 1.87772 15 2.375 15H13.625C14.1223 15 14.5992 14.8025 14.9508 14.4508C15.3025 14.0992 15.5 13.6223 15.5 13.125V1.875C15.5 1.37772 15.3025 0.900806 14.9508 0.549175C14.5992 0.197544 14.1223 0 13.625 0V0ZM1.4375 3.61594C1.4375 3.1725 1.8575 2.8125 2.375 2.8125H13.625C14.1425 2.8125 14.5625 3.1725 14.5625 3.61594V13.2591C14.5625 13.7025 14.1425 14.0625 13.625 14.0625H2.375C1.8575 14.0625 1.4375 13.7025 1.4375 13.2591V3.61594Z" fill="#002870"/>
<path fill-rule="evenodd" clip-rule="evenodd" d="M6.59375 6.5625C6.84239 6.5625 7.08085 6.46373 7.25666 6.28791C7.43248 6.1121 7.53125 5.87364 7.53125 5.625C7.53125 5.37636 7.43248 5.1379 7.25666 4.96209C7.08085 4.78627 6.84239 4.6875 6.59375 4.6875C6.34511 4.6875 6.10665 4.78627 5.93084 4.96209C5.75502 5.1379 5.65625 5.37636 5.65625 5.625C5.65625 5.87364 5.75502 6.1121 5.93084 6.28791C6.10665 6.46373 6.34511 6.5625 6.59375 6.5625ZM9.40625 6.5625C9.65489 6.5625 9.89335 6.46373 10.0692 6.28791C10.245 6.1121 10.3438 5.87364 10.3438 5.625C10.3438 5.37636 10.245 5.1379 10.0692 4.96209C9.89335 4.78627 9.65489 4.6875 9.40625 4.6875C9.15761 4.6875 8.91915 4.78627 8.74334 4.96209C8.56752 5.1379 8.46875 5.37636 8.46875 5.625C8.46875 5.87364 8.56752 6.1121 8.74334 6.28791C8.91915 6.46373 9.15761 6.5625 9.40625 6.5625V6.5625ZM12.2188 6.5625C12.4674 6.5625 12.7058 6.46373 12.8817 6.28791C13.0575 6.1121 13.1562 5.87364 13.1562 5.625C13.1562 5.37636 13.0575 5.1379 12.8817 4.96209C12.7058 4.78627 12.4674 4.6875 12.2188 4.6875C11.9701 4.6875 11.7317 4.78627 11.5558 4.96209C11.38 5.1379 11.2812 5.37636 11.2812 5.625C11.2812 5.87364 11.38 6.1121 11.5558 6.28791C11.7317 6.46373 11.9701 6.5625 12.2188 6.5625V6.5625ZM3.78125 9.375C4.02989 9.375 4.26835 9.27623 4.44416 9.10041C4.61998 8.9246 4.71875 8.68614 4.71875 8.4375C4.71875 8.18886 4.61998 7.9504 4.44416 7.77459C4.26835 7.59877 4.02989 7.5 3.78125 7.5C3.53261 7.5 3.29415 7.59877 3.11834 7.77459C2.94252 7.9504 2.84375 8.18886 2.84375 8.4375C2.84375 8.68614 2.94252 8.9246 3.11834 9.10041C3.29415 9.27623 3.53261 9.375 3.78125 9.375V9.375ZM6.59375 9.375C6.84239 9.375 7.08085 9.27623 7.25666 9.10041C7.43248 8.9246 7.53125 8.68614 7.53125 8.4375C7.53125 8.18886 7.43248 7.9504 7.25666 7.77459C7.08085 7.59877 6.84239 7.5 6.59375 7.5C6.34511 7.5 6.10665 7.59877 5.93084 7.77459C5.75502 7.9504 5.65625 8.18886 5.65625 8.4375C5.65625 8.68614 5.75502 8.9246 5.93084 9.10041C6.10665 9.27623 6.34511 9.375 6.59375 9.375ZM9.40625 9.375C9.65489 9.375 9.89335 9.27623 10.0692 9.10041C10.245 8.9246 10.3438 8.68614 10.3438 8.4375C10.3438 8.18886 10.245 7.9504 10.0692 7.77459C9.89335 7.59877 9.65489 7.5 9.40625 7.5C9.15761 7.5 8.91915 7.59877 8.74334 7.77459C8.56752 7.9504 8.46875 8.18886 8.46875 8.4375C8.46875 8.68614 8.56752 8.9246 8.74334 9.10041C8.91915 9.27623 9.15761 9.375 9.40625 9.375V9.375ZM12.2188 9.375C12.4674 9.375 12.7058 9.27623 12.8817 9.10041C13.0575 8.9246 13.1562 8.68614 13.1562 8.4375C13.1562 8.18886 13.0575 7.9504 12.8817 7.77459C12.7058 7.59877 12.4674 7.5 12.2188 7.5C11.9701 7.5 11.7317 7.59877 11.5558 7.77459C11.38 7.9504 11.2812 8.18886 11.2812 8.4375C11.2812 8.68614 11.38 8.9246 11.5558 9.10041C11.7317 9.27623 11.9701 9.375 12.2188 9.375V9.375ZM3.78125 12.1875C4.02989 12.1875 4.26835 12.0887 4.44416 11.9129C4.61998 11.7371 4.71875 11.4986 4.71875 11.25C4.71875 11.0014 4.61998 10.7629 4.44416 10.5871C4.26835 10.4113 4.02989 10.3125 3.78125 10.3125C3.53261 10.3125 3.29415 10.4113 3.11834 10.5871C2.94252 10.7629 2.84375 11.0014 2.84375 11.25C2.84375 11.4986 2.94252 11.7371 3.11834 11.9129C3.29415 12.0887 3.53261 12.1875 3.78125 12.1875V12.1875ZM6.59375 12.1875C6.84239 12.1875 7.08085 12.0887 7.25666 11.9129C7.43248 11.7371 7.53125 11.4986 7.53125 11.25C7.53125 11.0014 7.43248 10.7629 7.25666 10.5871C7.08085 10.4113 6.84239 10.3125 6.59375 10.3125C6.34511 10.3125 6.10665 10.4113 5.93084 10.5871C5.75502 10.7629 5.65625 11.0014 5.65625 11.25C5.65625 11.4986 5.75502 11.7371 5.93084 11.9129C6.10665 12.0887 6.34511 12.1875 6.59375 12.1875ZM9.40625 12.1875C9.65489 12.1875 9.89335 12.0887 10.0692 11.9129C10.245 11.7371 10.3438 11.4986 10.3438 11.25C10.3438 11.0014 10.245 10.7629 10.0692 10.5871C9.89335 10.4113 9.65489 10.3125 9.40625 10.3125C9.15761 10.3125 8.91915 10.4113 8.74334 10.5871C8.56752 10.7629 8.46875 11.0014 8.46875 11.25C8.46875 11.4986 8.56752 11.7371 8.74334 11.9129C8.91915 12.0887 9.15761 12.1875 9.40625 12.1875V12.1875Z" fill="#002870"/>
</g>
<defs>
<clipPath id="clip0_11_3034">
<rect width="15" height="15" fill="white" transform="translate(0.5)"/>
</clipPath>
</defs>
</svg>
