<svg width="18" height="19" viewBox="0 0 18 19" fill="none" xmlns="http://www.w3.org/2000/svg">
<path d="M2.5 5C2.5 3.59554 2.5 2.89331 2.83706 2.38886C2.98298 2.17048 3.17048 1.98298 3.38886 1.83706C3.89331 1.5 4.59554 1.5 6 1.5H13C14.4045 1.5 15.1067 1.5 15.6111 1.83706C15.8295 1.98298 16.017 2.17048 16.1629 2.38886C16.5 2.89331 16.5 3.59554 16.5 5V14C16.5 15.4045 16.5 16.1067 16.1629 16.6111C16.017 16.8295 15.8295 17.017 15.6111 17.1629C15.1067 17.5 14.4045 17.5 13 17.5H6C4.59554 17.5 3.89331 17.5 3.38886 17.1629C3.17048 17.017 2.98298 16.8295 2.83706 16.6111C2.5 16.1067 2.5 15.4045 2.5 14V5Z" stroke="white" stroke-width="1.5"/>
<path d="M7.5 5.5H11.5" stroke="white" stroke-width="1.5" stroke-linecap="round"/>
<path d="M7.5 9.5H11.5" stroke="white" stroke-width="1.5" stroke-linecap="round"/>
<path d="M7.5 13.5H11.5" stroke="white" stroke-width="1.5" stroke-linecap="round"/>
<path d="M1.5 7.5H3.5" stroke="white" stroke-width="1.5" stroke-linecap="round"/>
<path d="M1.5 11.5H3.5" stroke="white" stroke-width="1.5" stroke-linecap="round"/>
</svg>
