<svg width="19" height="19" viewBox="0 0 19 19" fill="none" xmlns="http://www.w3.org/2000/svg">
<path d="M9.5 14.5V15.5V17.5M7.5 17.5H11.5" stroke="#002870" stroke-width="1.5" stroke-linecap="round"/>
<path d="M14 1.5C15.4045 1.5 16.1067 1.5 16.6111 1.83706C16.8295 1.98298 17.017 2.17048 17.1629 2.38886C17.5 2.89331 17.5 3.59554 17.5 5L17.5 11C17.5 12.4045 17.5 13.1067 17.1629 13.6111C17.017 13.8295 16.8295 14.017 16.6111 14.1629C16.1067 14.5 15.4045 14.5 14 14.5L5 14.5C3.59554 14.5 2.89331 14.5 2.38886 14.1629C2.17048 14.017 1.98298 13.8295 1.83706 13.6111C1.5 13.1067 1.5 12.4045 1.5 11L1.5 5C1.5 3.59554 1.5 2.89331 1.83706 2.38886C1.98298 2.17048 2.17048 1.98298 2.38886 1.83706C2.89331 1.5 3.59554 1.5 5 1.5L14 1.5Z" stroke="#002870" stroke-width="1.5"/>
<path d="M8.5 6.5L6.5 9.5" stroke="#002870" stroke-width="1.5" stroke-linecap="round"/>
<path d="M12.7412 6.5L10.7412 9.5" stroke="#002870" stroke-width="1.5" stroke-linecap="round"/>
</svg>
