<svg width="17" height="18" viewBox="0 0 17 18" fill="none" xmlns="http://www.w3.org/2000/svg">
<path d="M6.55025 1.5C7.16225 1.5 7.46824 1.5 7.75214 1.58612C7.87751 1.62415 7.99883 1.6744 8.11437 1.73616C8.37601 1.87601 8.59238 2.09238 9.02513 2.52513L14.5251 8.02514C15.5182 9.01824 16.0148 9.51479 16.1331 10.1098C16.1844 10.3674 16.1844 10.6326 16.1331 10.8902C16.0148 11.4852 15.5182 11.9818 14.5251 12.9749L12.4749 15.0251C11.4818 16.0182 10.9852 16.5148 10.3902 16.6331C10.1326 16.6844 9.86742 16.6844 9.60982 16.6331C9.01478 16.5148 8.51823 16.0182 7.52512 15.0251L2.02513 9.52512C1.59238 9.09238 1.37601 8.87601 1.23616 8.61437C1.1744 8.49883 1.12415 8.37751 1.08612 8.25214C1 7.96825 1 7.66225 1 7.05025L1 5C1 3.59554 1 2.89331 1.33706 2.38886C1.48298 2.17048 1.67048 1.98298 1.88886 1.83706C2.39331 1.5 3.09554 1.5 4.5 1.5L6.55025 1.5Z" stroke="white" stroke-width="1.5"/>
<path d="M4 5C4 4.72386 4.22386 4.5 4.5 4.5V4.5C4.77614 4.5 5 4.72386 5 5V5C5 5.27614 4.77614 5.5 4.5 5.5V5.5C4.22386 5.5 4 5.27614 4 5V5Z" stroke="white" stroke-width="1.5"/>
</svg>
