<svg width="160" height="52" viewBox="0 0 160 52" fill="none" xmlns="http://www.w3.org/2000/svg">
<path d="M15.392 20.256H8.928V18.912H15.392V20.256ZM15.392 24H8.928V22.72H15.392V24ZM15.392 27.872H8.928V26.464H15.392V27.872ZM5.152 31.616H8.928V30.752H29.568V27.872H19.04V26.464H27.392V24H19.04V22.72H27.36V20.256H19.04V18.912H28.8V16H19.712C19.328 14.944 18.752 13.696 18.176 12.704L14.592 13.696C14.944 14.4 15.296 15.2 15.584 16H10.656C11.2 15.2 11.712 14.4 12.192 13.6L8.32 12.864C6.88 15.616 4.288 18.912 0.736 21.44C1.6 21.92 2.816 23.136 3.424 23.936C4 23.456 4.576 22.976 5.152 22.464V31.616ZM10.144 36.32C8.16 37.504 4.352 38.56 1.088 39.008C1.856 39.712 2.912 41.056 3.456 41.92C6.816 41.152 10.72 39.456 12.992 37.632L10.144 36.32ZM30.368 35.712V32.672H17.824V31.04H14.048V32.672H1.632V35.712H14.048V42.72H17.824V35.712H30.368ZM18.976 38.24C21.92 39.328 26.048 40.992 28.096 41.984L30.432 39.488C28.224 38.464 24 36.96 21.184 36.032L18.976 38.24ZM40.192 12.96C38.528 17.504 35.616 22.048 32.64 24.928C33.28 25.856 34.336 27.904 34.688 28.832C35.424 28.032 36.192 27.168 36.928 26.24V42.688H40.544V20.736C41.792 18.592 42.848 16.32 43.712 14.112L40.192 12.96ZM45.888 32.544C44.8 34.912 43.072 37.568 41.472 39.328C42.336 39.776 43.744 40.8 44.416 41.376C46.048 39.424 48 36.32 49.312 33.568L45.888 32.544ZM47.968 17.632H57.344V21.92H47.968V17.632ZM62.752 31.552V28.096H54.464V25.28H61.152V14.272H44.352V25.28H50.624V28.096H42.272V31.552H50.624V42.784H54.464V31.552H62.752ZM55.552 34.08C57.248 36.256 59.2 39.2 60.064 41.088L63.072 39.264C62.144 37.376 60.192 34.624 58.368 32.512L55.552 34.08Z" fill="white"/>
<path d="M106.4 32.896H117.152V34.56H106.4V32.896ZM106.4 28.928H117.152V30.496H106.4V28.928ZM102.624 37.056H121.152V26.432H103.424C105.92 24.864 108.192 22.88 110.016 20.672V25.504H113.792V20.896C117.44 23.168 121.76 26.176 123.936 28.16L126.368 25.408C124.48 23.808 121.248 21.664 118.176 19.776H126.272V16.48H113.792V12.896H110.016V16.48H97.792V19.776H106.336C103.872 22.208 100.416 24.352 96.864 25.472C97.664 26.208 98.752 27.616 99.296 28.512C100.448 28.064 101.536 27.552 102.624 26.912V37.056ZM98.016 41.888H125.984V38.56H98.016V41.888ZM141.248 18.176H135.488L137.504 16.864C136.992 15.712 135.968 13.952 135.072 12.64L132.384 14.144C133.12 15.36 133.984 16.96 134.496 18.176H129.28V21.184H141.248V18.176ZM136.896 34.368V37.952H133.536V34.368H136.896ZM139.936 31.328H130.592V42.368H133.536V41.024H139.936V31.328ZM130.56 29.792H139.936V26.912H130.56V29.792ZM148.896 26.176V28.352H145.696V26.176H148.896ZM145.696 33.376V31.232H148.896V33.376H145.696ZM147.616 17.408C148.096 16.256 148.512 15.104 148.864 13.888L145.056 13.024C144.096 16.832 142.208 20.576 139.904 22.912V22.624H130.56V25.504H139.904V23.168C140.736 23.712 141.952 24.608 142.688 25.248V37.536H145.696V36.384H151.968V23.168H144.608C145.088 22.432 145.568 21.696 146.016 20.864H154.816C154.528 32.736 154.176 37.44 153.344 38.432C152.992 38.88 152.64 39.04 152.096 39.04C151.36 39.04 149.888 39.008 148.224 38.88C148.864 39.936 149.344 41.568 149.408 42.656C151.04 42.72 152.736 42.72 153.856 42.528C155.008 42.336 155.84 41.984 156.608 40.8C157.792 39.168 158.08 33.92 158.432 19.168C158.464 18.72 158.464 17.408 158.464 17.408H147.616Z" fill="white"/>
<ellipse cx="87.197" cy="7.04853" rx="4.64079" ry="5.27901" transform="rotate(20.5241 87.197 7.04853)" fill="white"/>
<path d="M79.5 15.5002C75.9 17.5002 73 21.0003 72 22.5003C71.6 24.1002 73 24.0002 73.5 23.5004L76.5 20.0004C79.7 17.2004 79.8333 19.167 79.5 20.5004C78.5 23.667 76 31.1004 74 35.5004C71.2728 41.5002 73.0878 46.5928 80 44.0004C84 42.5002 89.0957 37.5219 89.5 35.5004C89.839 33.8054 88.5 34.0002 88 34.5002C87.2 35.7002 85.5 37.667 84.5 38.5004C81.7 40.5004 82 38.3337 82.5 37.0004C83.1667 35.167 84.8763 29.6218 87.5 22.5003C91 13.0002 84 13.0002 79.5 15.5002Z" fill="white"/>
</svg>
